<svg xmlns="http://www.w3.org/2000/svg" version="1.1" xmlns:xlink="http://www.w3.org/1999/xlink" width="205" height="205"><svg width="205" height="205" viewBox="0 0 205 205" fill="none" xmlns="http://www.w3.org/2000/svg">
<path d="M168.567 31.7204L166.923 85.9589L140.626 60.4832H84.7435C77.7583 60.4832 71.5948 63.7704 71.5948 71.1665C71.5948 78.9736 77.1419 81.0281 86.3871 81.0281H122.546C152.336 81.0281 173.497 98.9022 173.497 128.692C173.497 159.304 147.2 180.465 117.615 180.465H94.6051C80.0182 180.465 67.4858 180.054 30.505 178V120.474L61.7333 148.415H119.259C128.299 148.415 130.764 141.43 130.764 136.91C130.764 130.541 124.806 126.227 115.972 126.227H84.7435C45.7082 126.227 30.505 106.298 30.505 79.3845C30.505 50.0053 52.2826 29.255 89.058 29.255H111.041C125.422 29.255 146.995 30.2822 168.567 31.7204Z" fill="black"></path>
</svg><style>@media (prefers-color-scheme: light) { :root { filter: none; } }
@media (prefers-color-scheme: dark) { :root { filter: invert(100%); } }
</style></svg>